<svg height="416pt" viewBox="-27 0 416 416.42667" width="416pt" xmlns="http://www.w3.org/2000/svg"><path d="m307.414062 153.601562c0 84.828126-68.769531 153.597657-153.601562 153.597657s-153.597656-68.769531-153.597656-153.597657c0-84.832031 68.765625-153.601562 153.597656-153.601562s153.601562 68.769531 153.601562 153.601562zm0 0" fill="#d9be6f"/><path d="m247.496094 48.269531c6.097656-11.105469 20.039062-15.167969 31.144531-9.074219 11.105469 6.097657 15.167969 20.042969 9.070313 31.148438-6.09375 11.101562-20.039063 15.164062-31.144532 9.070312l-11.035156 20.105469s-20.109375-11.035156 1.964844-51.25zm0 0" fill="#f53e28"/><path d="m245.523438 106.347656c-1.109376 0-2.238282-.273437-3.277344-.84375-.769532-.421875-7.59375-4.414062-10.566406-14.621094-3.535157-12.132812-.226563-27.574218 9.832031-45.898437 0-.003906 0-.003906 0-.003906 7.890625-14.386719 26.027343-19.65625 40.414062-11.769531 14.390625 7.902343 19.664063 26.03125 11.769531 40.417968-3.824218 6.96875-10.136718 12.03125-17.769531 14.253906-5.398437 1.570313-11 1.59375-16.28125.113282l-8.132812 14.808594c-1.238281 2.261718-3.574219 3.542968-5.988281 3.542968zm7.953124-54.796875c-9.457031 17.230469-10.507812 28.621094-8.773437 35.289063l5.878906-10.707032c1.8125-3.308593 5.960938-4.519531 9.269531-2.703124 3.773438 2.066406 8.117188 2.542968 12.257813 1.34375 4.132813-1.203126 7.546875-3.941407 9.617187-7.714844 4.273438-7.789063 1.417969-17.601563-6.371093-21.878906-7.773438-4.253907-17.601563-1.414063-21.878907 6.371093zm0 0" fill="#4c241d"/><path d="m201.367188 47.421875c-6.757813-10.714844-20.921876-13.921875-31.636719-7.164063-10.714844 6.757813-13.921875 20.921876-7.164063 31.636719 6.757813 10.714844 20.921875 13.921875 31.636719 7.164063l12.234375 19.402344s19.402344-12.234376-5.070312-51.039063zm0 0" fill="#f53e28"/><path d="m206.4375 105.289062c-.503906 0-1.011719-.054687-1.507812-.171874-1.765626-.398438-3.304688-1.480469-4.265626-3.015626l-9.015624-14.289062c-5.179688 1.796875-10.777344 2.117188-16.257813.871094-7.753906-1.753906-14.359375-6.425782-18.597656-13.152344-8.753907-13.882812-4.585938-32.300781 9.296875-41.050781 6.726562-4.246094 14.699218-5.609375 22.449218-3.851563 7.757813 1.753906 14.363282 6.425782 18.601563 13.152344 27.792969 44.070312 3.964844 59.804688 2.941406 60.453125-1.101562.695313-2.367187 1.054687-3.644531 1.054687zm-12.238281-33.054687c.503906 0 1.011719.054687 1.507812.167969 1.765625.402344 3.304688 1.484375 4.265625 3.019531l6.550782 10.382813c1.3125-6.722657-.40625-18.050782-10.929688-34.738282-4.738281-7.515625-14.707031-9.777344-22.222656-5.035156-7.511719 4.742188-9.769532 14.707031-5.03125 22.222656 2.296875 3.640625 5.871094 6.167969 10.066406 7.117188 4.203125.953125 8.515625.210937 12.15625-2.082032 1.09375-.695312 2.355469-1.054687 3.636719-1.054687zm0 0" fill="#4c241d"/><path d="m209.382812 43.417969c0-12.667969 10.269532-22.9375 22.9375-22.9375 12.667969 0 22.9375 10.269531 22.9375 22.9375s-10.269531 22.9375-22.9375 22.9375v22.9375s-22.9375 0-22.9375-45.875zm0 0" fill="#f53e28"/><path d="m232.320312 96.121094c-1.21875 0-29.761718-.601563-29.761718-52.707032 0-16.40625 13.351562-29.761718 29.761718-29.761718 16.410157 0 29.765626 13.355468 29.765626 29.761718 0 14.066407-9.804688 25.886719-22.9375 28.980469v16.898438c0 3.769531-3.058594 6.828125-6.828126 6.828125zm0-68.8125c-8.882812 0-16.109374 7.222656-16.109374 16.105468 0 19.65625 4.554687 30.144532 9.28125 35.160157v-12.21875c0-3.769531 3.058593-6.824219 6.828124-6.824219 8.882813 0 16.109376-7.230469 16.109376-16.113281 0-8.882813-7.226563-16.109375-16.109376-16.109375zm0 0" fill="#4c241d"/><path d="m232.320312 80.828125c-67.5625 0-122.335937 54.769531-122.335937 122.332031v84.105469c0 13.289063 2.1875 26.054687 6.105469 38.035156.523437.035157 1.007812.195313 1.542968.195313 7.988282 0 15.007813-4.09375 19.113282-10.285156 4.109375 6.191406 11.125 10.285156 19.117187 10.285156 7.988281 0 15.003907-4.09375 19.113281-10.285156 4.105469 6.191406 11.125 10.285156 19.113282 10.285156 7.988281 0 15.007812-4.09375 19.117187-10.285156 4.105469 6.191406 11.125 10.285156 19.113281 10.285156 7.988282 0 15.007813-4.09375 19.113282-10.285156 4.109375 6.191406 11.125 10.285156 19.117187 10.285156 7.988281 0 15.003907-4.09375 19.113281-10.285156 4.109376 6.191406 11.125 10.285156 19.113282 10.285156 7.988281 0 15.007812-4.09375 19.117187-10.285156 4.105469 6.191406 11.125 10.285156 19.113281 10.285156.53125 0 1.015626-.160156 1.542969-.195313 3.917969-11.980469 6.101563-24.746093 6.101563-38.035156v-84.105469c0-67.5625-54.769532-122.332031-122.332032-122.332031zm0 0" fill="#ffce56"/><g fill="#4c241d"><path d="m347.007812 332.324219c-7.09375 0-13.824218-2.515625-19.113281-6.960938-5.292969 4.445313-12.019531 6.960938-19.113281 6.960938s-13.828125-2.515625-19.117188-6.960938c-5.289062 4.445313-12.019531 6.960938-19.113281 6.960938s-13.824219-2.515625-19.117187-6.960938c-10.578125 8.894531-27.644532 8.894531-38.226563 0-5.292969 4.445313-12.023437 6.960938-19.113281 6.960938-7.09375 0-13.824219-2.515625-19.113281-6.960938-5.292969 4.445313-12.023438 6.960938-19.117188 6.960938s-13.824219-2.515625-19.113281-6.960938c-5.289062 4.445313-12.019531 6.960938-19.113281 6.960938-.710938 0-1.390625-.085938-2.066407-.210938-2.789062-.175781-5.097656-2.035156-5.964843-4.691406-4.273438-13.074219-6.441407-26.585937-6.441407-40.152344v-84.109375c0-71.21875 57.941407-129.160156 129.160157-129.160156 71.222656 0 129.160156 57.941406 129.160156 129.160156v84.109375c0 13.566407-2.167969 27.078125-6.4375 40.152344-.871094 2.65625-3.265625 4.515625-6.058594 4.691406-.589843.125-1.273437.210938-1.980469.210938zm1.542969-7.023438h.066407zm-58.886719-16.917969c2.289063 0 4.421876 1.148438 5.691407 3.054688 3.003906 4.527344 8.023437 7.230469 13.425781 7.230469s10.417969-2.703125 13.421875-7.230469c2.53125-3.8125 8.847656-3.8125 11.378906 0 2.347657 3.539062 5.929688 5.964844 9.960938 6.855469 2.84375-10.167969 4.285156-20.582031 4.285156-31.027344v-84.105469c0-63.691406-51.816406-115.507812-115.507813-115.507812-63.691406 0-115.507812 51.816406-115.507812 115.507812v84.105469c0 10.460937 1.445312 20.886719 4.292969 31.0625 3.929687-.863281 7.570312-3.304687 9.949219-6.890625 2.535156-3.8125 8.847656-3.8125 11.382812 0 3.003906 4.527344 8.019531 7.230469 13.421875 7.230469s10.421875-2.703125 13.425781-7.230469c2.535156-3.8125 8.847656-3.8125 11.382813 0 3 4.527344 8.019531 7.230469 13.421875 7.230469s10.421875-2.703125 13.429687-7.230469c1.261719-1.90625 3.398438-3.054688 5.6875-3.054688 2.289063 0 4.425781 1.148438 5.6875 3.054688 3.003907 4.527344 8.019531 7.230469 13.421875 7.230469 5.40625 0 10.421875-2.703125 13.425782-7.230469 2.523437-3.8125 8.847656-3.816406 11.375 0 3.007812 4.527344 8.027343 7.230469 13.429687 7.230469s10.421875-2.703125 13.421875-7.230469c1.273438-1.90625 3.40625-3.054688 5.695312-3.054688zm0 0"/><path d="m274.933594 184.046875c0 4.535156-3.671875 8.210937-8.207032 8.210937-4.535156 0-8.210937-3.675781-8.210937-8.210937s3.675781-8.210937 8.210937-8.210937c4.535157 0 8.207032 3.675781 8.207032 8.210937zm0 0"/><path d="m198.476562 184.046875c0 4.535156-3.675781 8.210937-8.207031 8.210937-4.535156 0-8.210937-3.675781-8.210937-8.210937s3.675781-8.210937 8.210937-8.210937c4.53125 0 8.207031 3.675781 8.207031 8.210937zm0 0"/></g><path d="m232.320312 279.621094-27.664062-35.894532 27.664062-35.894531 27.664063 35.894531zm0 0" fill="#fc8c29"/><path d="m232.320312 286.445312c-2.117187 0-4.113281-.980468-5.40625-2.660156l-27.664062-35.890625c-1.894531-2.457031-1.894531-5.878906 0-8.335937l27.664062-35.890625c2.585938-3.355469 8.226563-3.355469 10.8125 0l27.664063 35.890625c1.890625 2.457031 1.890625 5.878906 0 8.335937l-27.664063 35.890625c-1.292968 1.679688-3.289062 2.660156-5.40625 2.660156zm-19.042968-42.71875 19.042968 24.710938 19.042969-24.710938-19.042969-24.710937zm0 0" fill="#4c241d"/><path d="m209.382812 241.390625 22.9375 7.644531 22.9375-7.644531" fill="#6b4f5b"/><path d="m232.320312 255.863281c-.730468 0-1.460937-.117187-2.160156-.351562l-22.9375-7.644531c-3.578125-1.191407-5.511718-5.058594-4.316406-8.636719 1.195312-3.574219 5.039062-5.511719 8.636719-4.316407l20.777343 6.925782 20.777344-6.925782c3.59375-1.191406 7.445313.746094 8.636719 4.316407 1.195313 3.578125-.738281 7.441406-4.3125 8.636719l-22.9375 7.644531c-.703125.234375-1.433594.351562-2.164063.351562zm0 0" fill="#4c241d"/><path d="m327.894531 315.210938c-4.109375 6.191406-11.128906 10.285156-19.117187 10.285156-7.988282 0-15.003906-4.09375-19.113282-10.285156-4.109374 6.191406-11.125 10.285156-19.113281 10.285156-7.992187 0-15.007812-4.09375-19.117187-10.285156-4.105469 6.191406-11.125 10.285156-19.113282 10.285156-7.988281 0-15.007812-4.09375-19.113281-10.285156-4.109375 6.191406-11.128906 10.285156-19.117187 10.285156-7.988282 0-15.007813-4.09375-19.113282-10.285156-4.109374 6.191406-11.125 10.285156-19.113281 10.285156-7.992187 0-15.007812-4.09375-19.117187-10.285156-4.105469 6.191406-11.125 10.285156-19.113282 10.285156-.535156 0-1.019531-.160156-1.542968-.195313 16.007812 48.925781 61.957031 84.300781 116.230468 84.300781 54.273438 0 100.222657-35.375 116.230469-84.300781-.527343.035157-1.011719.195313-1.542969.195313-7.988281 0-15.007812-4.09375-19.113281-10.285156zm0 0" fill="#efefd2"/><path d="m232.320312 416.425781c-55.988281 0-105.304687-35.765625-122.714843-89-.707031-2.15625-.296875-4.515625 1.089843-6.304687 1.382813-1.789063 3.5625-2.792969 5.828126-2.632813.496093.035157.972656.105469 1.453124.1875 5.0625-.003906 10.078126-2.707031 13.082032-7.238281 2.53125-3.8125 8.847656-3.8125 11.378906 0 3.003906 4.53125 8.019531 7.234375 13.425781 7.234375 5.402344 0 10.421875-2.703125 13.425781-7.234375 2.53125-3.8125 8.847657-3.8125 11.378907 0 3.003906 4.53125 8.019531 7.234375 13.421875 7.234375s10.421875-2.703125 13.429687-7.234375c1.265625-1.90625 3.402344-3.054688 5.6875-3.054688 2.289063 0 4.425781 1.148438 5.691407 3.054688 3.003906 4.53125 8.019531 7.234375 13.421874 7.234375 5.402344 0 10.417969-2.703125 13.421876-7.234375 2.523437-3.808594 8.847656-3.816406 11.378906 0 3.003906 4.53125 8.023437 7.234375 13.429687 7.234375 5.402344 0 10.417969-2.703125 13.421875-7.234375 2.53125-3.8125 8.847656-3.8125 11.378906 0 3.003907 4.53125 8.023438 7.234375 13.425782 7.234375 5.40625 0 10.421875-2.703125 13.425781-7.234375 2.53125-3.8125 8.847656-3.8125 11.378906 0 3.003907 4.53125 8.019531 7.234375 13.421875 7.234375.136719-.082031.617188-.152344 1.109375-.183594 2.242188-.167969 4.445313.839844 5.832031 2.632813 1.382813 1.789062 1.796876 4.152344 1.089844 6.304687-17.414062 53.234375-66.726562 89-122.714844 89zm-106.765624-85.171875c17.707031 43.113282 59.589843 71.519532 106.765624 71.519532 47.175782 0 89.058594-28.40625 106.765626-71.519532-4.109376-1.136718-7.925782-3.144531-11.191407-5.890625-5.292969 4.445313-12.019531 6.960938-19.113281 6.960938s-13.828125-2.515625-19.117188-6.960938c-5.289062 4.445313-12.019531 6.960938-19.113281 6.960938s-13.824219-2.515625-19.117187-6.960938c-10.578125 8.894531-27.644532 8.894531-38.226563 0-5.292969 4.445313-12.023437 6.960938-19.113281 6.960938-7.09375 0-13.824219-2.515625-19.113281-6.960938-5.292969 4.445313-12.023438 6.960938-19.117188 6.960938s-13.824219-2.515625-19.113281-6.960938c-3.269531 2.746094-7.085938 4.753907-11.195312 5.890625zm0 0" fill="#4c241d"/></svg>