<svg height="480pt" viewBox="-48 0 480 480" width="480pt" xmlns="http://www.w3.org/2000/svg"><path d="m376 256c0 128.128906-82.398438 216-184 216s-184-87.871094-184-216 82.398438-248 184-248 184 119.871094 184 248zm0 0" fill="#ffd782"/><path d="m362.464844 166.3125c-7.824219-25.882812-19.28125-50.523438-34.03125-73.183594l-6.929688-5.128906-43.199218 32-43.199219-32-43.203125 32-43.199219-32-43.199219 32-43.199218-32-6.625 4.902344c-14.777344 22.699218-26.25 47.386718-34.078126 73.3125l40.726563-30.214844 43.199219 32 43.199218-32 43.203126 32 43.199218-32 43.199219 32 43.199219-32zm0 0" fill="#f98c96"/><path d="m362.464844 166.3125-40.960938-30.3125-43.199218 32-43.199219-32-43.203125 32-43.199219-32-43.199219 32-43.199218-32-40.800782 30.214844c-4.414062 14.4375-7.757812 29.179687-10.007812 44.105468l7.65625 5.679688 43.199218-32 43.199219 32 43.203125-32 43.199219 32 43.199219-32 43.199218 32 43.199219-32 43.25 32 7.742188-5.726562c-2.277344-14.882813-5.648438-29.574219-10.078125-43.960938zm0 0" fill="#dd3e46"/><path d="m364.753906 320-43.25-32-43.199218 32-43.199219-32-43.203125 32-43.199219-32-43.199219 32-43.199218-32-43.199219 32-4.480469-3.320312c3.390625 15.066406 8.253906 29.761718 14.527344 43.871093l33.175781-24.550781 43.199219 32 43.199218-32 43.203126 32 43.199218-32 43.199219 32 43.199219-32 33.265625 24.617188c6.292969-14.152344 11.175781-28.890626 14.574219-44zm0 0" fill="#dd3e46"/><g fill="#fff69a"><path d="m56 224h16v16h-16zm0 0"/><path d="m96 264h16v16h-16zm0 0"/><path d="m136 224h16v16h-16zm0 0"/><path d="m184 264h16v16h-16zm0 0"/><path d="m224 224h16v16h-16zm0 0"/><path d="m272 264h16v16h-16zm0 0"/><path d="m312 224h16v16h-16zm0 0"/><path d="m192 448v-16c.601562 0 60.839844-.695312 97.863281-45.121094l12.289063 10.242188c-41.921875 50.304687-107.382813 50.878906-110.152344 50.878906zm0 0"/><path d="m160 432h16v16h-16zm0 0"/><path d="m109.65625 85.65625-11.3125-11.3125c24.871094-25.261719 58.261719-40.355469 93.65625-42.34375v16c-31.097656 2.183594-60.351562 15.558594-82.34375 37.65625zm0 0"/><path d="m208 32h16v16h-16zm0 0"/></g><path d="m192 480c109.457031 0 192-96.304688 192-224 0-136.375-89.71875-256-192-256s-192 119.625-192 256c0 127.695312 82.542969 224 192 224zm0-16c-66.792969 0-122.617188-39.65625-152.496094-101.128906l22.824219-16.910156 38.398437 28.472656c2.832032 2.097656 6.699219 2.097656 9.53125 0l38.398438-28.472656 38.398438 28.472656c2.828124 2.09375 6.691406 2.09375 9.519531 0l38.441406-28.472656 38.398437 28.464843c2.832032 2.097657 6.699219 2.097657 9.53125 0l38.453126-28.480469 22.960937 16.984376c-29.785156 61.445312-85.589844 101.070312-152.359375 101.070312zm-176-208c.015625-10.761719.613281-21.515625 1.785156-32.214844 2.144532.414063 4.367188-.078125 6.136719-1.359375l38.398437-28.464843 38.398438 28.472656c2.832031 2.097656 6.699219 2.097656 9.527344 0l38.402344-28.472656 38.398437 28.472656c2.828125 2.09375 6.691406 2.09375 9.519531 0l38.441406-28.472656 38.398438 28.464843c2.832031 2.097657 6.699219 2.097657 9.53125 0l38.453125-28.480469 38.609375 28.453126c1.371094 1.035156 3.035156 1.59375 4.753906 1.601562.488282-.03125.976563-.109375 1.453125-.230469 1.179688 10.703125 1.777344 21.460938 1.792969 32.230469.03125 17.660156-1.722656 35.277344-5.230469 52.585938l-36.503906-26.984376c-2.828125-2.09375-6.695313-2.09375-9.523437 0l-38.453126 28.46875-38.402343-28.460937c-2.828125-2.09375-6.691407-2.09375-9.519531 0l-38.398438 28.46875-38.402344-28.46875c-2.828125-2.09375-6.691406-2.09375-9.519531 0l-38.398437 28.46875-38.402344-28.46875c-2.828125-2.097656-6.695313-2.097656-9.527344 0l-36.34375 26.933594c-3.554688-17.289063-5.355469-34.890625-5.375-52.542969zm12.328125-84.847656 34-25.191406 38.398437 28.472656c2.832032 2.097656 6.699219 2.097656 9.53125 0l38.398438-28.472656 38.398438 28.472656c2.828124 2.09375 6.691406 2.09375 9.519531 0l38.441406-28.472656 38.398437 28.464843c2.832032 2.097657 6.699219 2.097657 9.53125 0l38.453126-28.480469 34.195312 25.292969c3.296875 11.15625 5.9375 22.492188 7.910156 33.953125l-37.238281-27.589844c-2.828125-2.09375-6.695313-2.09375-9.523437 0l-38.453126 28.46875-38.402343-28.460937c-2.828125-2.09375-6.691407-2.09375-9.519531 0l-38.398438 28.46875-38.402344-28.46875c-2.828125-2.09375-6.691406-2.09375-9.519531 0l-38.398437 28.46875-38.402344-28.46875c-2.828125-2.097656-6.695313-2.097656-9.527344 0l-37.152344 27.535156c1.921875-11.472656 4.515625-22.824219 7.761719-33.992187zm9.367187-26.855469c6.589844-16.265625 14.761719-31.839844 24.402344-46.503906l38.65625 28.640625c2.828125 2.097656 6.695313 2.097656 9.527344 0l38.398438-28.472656 38.398437 28.472656c2.828125 2.09375 6.695313 2.09375 9.523437 0l38.4375-28.472656 38.402344 28.464843c2.828125 2.097657 6.695313 2.097657 9.527344 0l38.800781-28.730469c9.691407 14.730469 17.898438 30.386719 24.503907 46.738282l-20.007813-14.832032c-2.828125-2.09375-6.695313-2.09375-9.523437 0l-38.453126 28.46875-38.402343-28.460937c-2.828125-2.09375-6.691407-2.09375-9.519531 0l-38.398438 28.46875-38.402344-28.46875c-2.828125-2.09375-6.691406-2.09375-9.519531 0l-38.398437 28.46875-38.402344-28.46875c-2.828125-2.097656-6.695313-2.097656-9.527344 0zm24.632813 153.664063 38.398437 28.472656c2.832032 2.097656 6.699219 2.097656 9.53125 0l38.398438-28.472656 38.398438 28.472656c2.828124 2.09375 6.691406 2.09375 9.519531 0l38.441406-28.472656 38.398437 28.464843c2.832032 2.097657 6.699219 2.097657 9.53125 0l38.453126-28.480469 37.144531 27.480469c-2.117188 7.628907-4.632813 15.148438-7.535157 22.519531l-24.847656-18.402343c-2.828125-2.09375-6.691406-2.09375-9.519531 0l-38.457031 28.472656-38.398438-28.464844c-2.828125-2.09375-6.691406-2.09375-9.519531 0l-38.402344 28.472657-38.398437-28.472657c-2.828125-2.09375-6.691406-2.09375-9.519532 0l-38.402343 28.472657-38.398438-28.472657c-2.832031-2.097656-6.699219-2.097656-9.527343 0l-24.707032 18.304688c-2.890625-7.367188-5.402344-14.878907-7.519531-22.503907zm129.671875-281.960938c45.648438 0 88.535156 26.632812 120.558594 68.664062l-34.269532 25.375-38.402343-28.464843c-2.828125-2.09375-6.691407-2.09375-9.519531 0l-38.398438 28.472656-38.402344-28.472656c-2.828125-2.09375-6.691406-2.09375-9.519531 0l-38.398437 28.472656-34.136719-25.285156c31.894531-42.097657 74.808593-68.761719 120.488281-68.761719zm0 0"/><path d="m56 224h16v16h-16zm0 0"/><path d="m96 264h16v16h-16zm0 0"/><path d="m136 224h16v16h-16zm0 0"/><path d="m184 264h16v16h-16zm0 0"/><path d="m224 224h16v16h-16zm0 0"/><path d="m272 264h16v16h-16zm0 0"/><path d="m312 224h16v16h-16zm0 0"/><path d="m192 432v16c2.769531 0 68.230469-.574219 110.144531-50.878906l-12.289062-10.242188c-37.054688 44.425782-97.261719 45.121094-97.855469 45.121094zm0 0"/><path d="m160 432h16v16h-16zm0 0"/><path d="m192 48v-16c-35.394531 1.988281-68.785156 17.082031-93.65625 42.34375l11.3125 11.3125c21.992188-22.097656 51.246094-35.472656 82.34375-37.65625zm0 0"/><path d="m208 32h16v16h-16zm0 0"/></svg>