<svg height="512" viewBox="0 0 512 512" width="512" xmlns="http://www.w3.org/2000/svg"><g id="filled_outline" data-name="filled outline"><path d="m312 252.442c0 37.555-24.736 56-55.25 56s-55.25-18.445-55.25-56 24.736-80 55.25-80 55.25 42.445 55.25 80z" fill="#fdb62f"/><path d="m213.875 204.787a102.692 102.692 0 0 0 -12.375 47.655c0 29.376 15.164 47.005 36.36 53.314 4.485-8.141 7.14-18.138 7.14-30.21 0-26.899-12.71-56.241-31.125-70.759z" fill="#f5b02e"/><path d="m230.5 276.442c0 37.555-24.736 56-55.25 56s-55.25-18.442-55.25-56 24.736-80 55.25-80 55.25 42.445 55.25 80z" fill="#97d9a9"/><path d="m265.5 276.442c0 12.021 2.558 22.061 7 30.188 22.832-5.451 39.5-23.376 39.5-54.188a102.712 102.712 0 0 0 -12.924-48.65c-19.739 13.758-33.576 44.565-33.576 72.65z" fill="#f5b02e"/><path d="m390.5 276.442c0 37.555-24.736 56-55.25 56s-55.25-18.442-55.25-56 24.736-80 55.25-80 55.25 42.445 55.25 80z" fill="#69b9e7"/><path d="m211.959 288h89.582a50.845 50.845 0 0 0 7.824-16h-105.23a50.845 50.845 0 0 0 7.824 16z" fill="#f5b02e"/><path d="m280 276.442a75.14 75.14 0 0 0 .908 11.558h108.684a75.14 75.14 0 0 0 .908-11.558c0-1.471-.1-2.959-.179-4.442h-110.142c-.079 1.483-.179 2.971-.179 4.442z" fill="#65b1dd"/><path d="m120 276.442a75.14 75.14 0 0 0 .908 11.558h108.684a75.14 75.14 0 0 0 .908-11.558c0-1.471-.1-2.959-.179-4.442h-110.142c-.079 1.483-.179 2.971-.179 4.442z" fill="#90cfa1"/><path d="m424 476.442h-336l-32-128h400z" fill="#dc9315"/><path d="m352 452.441h-240a8 8 0 0 1 0-16h240a8 8 0 0 1 0 16z" fill="#c48412"/><path d="m400 452.441h-16a8 8 0 0 1 0-16h16a8 8 0 0 1 0 16z" fill="#c48412"/><g fill="#ebebeb"><path d="m256 396.442a40 40 0 0 1 -40-40v-8h80v8a40 40 0 0 1 -40 40z"/><path d="m176 396.442a40 40 0 0 1 -40-40v-8h80v8a40 40 0 0 1 -40 40z"/><path d="m416 396.442a40 40 0 0 1 -40-40v-8h80v8a40 40 0 0 1 -40 40z"/><path d="m336 396.442a40 40 0 0 1 -40-40v-8h80v8a40 40 0 0 1 -40 40z"/><path d="m96 396.442a40 40 0 0 1 -40-40v-8h80v8a40 40 0 0 1 -40 40z"/></g><path d="m199.992 180.441a8 8 0 0 1 -6.648-12.441 82.475 82.475 0 0 1 48.7-34.32l4.016-1a8 8 0 1 1 3.882 15.523l-4.015 1a66.478 66.478 0 0 0 -39.27 27.672 7.993 7.993 0 0 1 -6.665 3.566z" fill="#fbeebd"/><path d="m301.352 162.023a7.992 7.992 0 0 1 -6.868-3.882 19.165 19.165 0 0 0 -11.879-8.8l-4.546-1.137a8 8 0 1 1 3.882-15.523l4.547 1.136a35.081 35.081 0 0 1 21.715 16.09 8 8 0 0 1 -6.851 12.117z" fill="#fbeebd"/><path d="m376 348.442h-320v8c0 1.219.251 2.367.358 3.558h399.284c.107-1.191.358-2.339.358-3.558v-8z" fill="#dddddb"/><path d="m456 284.442v-40c0-106.039-85.961-192-192-192h-16c-106.039 0-192 85.961-192 192v40a32 32 0 0 0 0 64h400a32 32 0 0 0 0-64zm-368 0v-40a160 160 0 0 1 160-160h16a160 160 0 0 1 160 160v40z" fill="#dc9315"/><path d="m56 272h32v12.442h-32z" fill="#c48412"/><path d="m424 272h32v12.442h-32z" fill="#c48412"/><path d="m316.119 99.956-44.119-11.03v-40l42.382-15.893a16 16 0 0 1 21.618 14.981v36.42a16 16 0 0 1 -19.881 15.522z" fill="#c94536"/><path d="m195.881 32.486 44.119 11.029v40l-42.382 15.894a16 16 0 0 1 -21.618-14.982v-36.419a16 16 0 0 1 19.881-15.522z" fill="#c94536"/><path d="m220 68.442a35.817 35.817 0 0 0 6.236 20.235l13.764-5.162v-40l-7.75-1.937a35.764 35.764 0 0 0 -12.25 26.864z" fill="#bc4132"/><path d="m292 68.442a35.705 35.705 0 0 0 -9.035-23.628l-10.965 4.112v40l11.239 2.81a35.683 35.683 0 0 0 8.761-23.294z" fill="#bc4132"/><circle cx="256" cy="68.442" fill="#f85542" r="32"/><path d="m464 277.25v-32.77a199.105 199.105 0 0 0 -120-183.169v-13.311a23.993 23.993 0 0 0 -32.414-22.449l-30.946 11.623a39.012 39.012 0 0 0 -45.021-2.961l-37.8-9.506a24.034 24.034 0 0 0 -29.819 23.293v13.311a199.105 199.105 0 0 0 -120 183.169v32.77a40 40 0 0 0 0 78.383v.808a47.706 47.706 0 0 0 8.567 27.3l23.671 94.677a8 8 0 0 0 7.762 6.062h336a8 8 0 0 0 7.762-6.062l23.638-94.634a47.7 47.7 0 0 0 8.6-27.343v-.808a40 40 0 0 0 0-78.383zm-65.521-.809c-.017-41.528-27.037-87.961-63.2-87.961-10.274 0-20.286 3.817-29.433 11.1-12.24-21.9-30.405-35.1-49.129-35.1-19.332 0-37.806 13.86-50.034 36.84-9.639-8.414-20.324-12.84-31.4-12.84-36.207 0-63.263 46.433-63.28 87.961h-16.003v-31.961a152.039 152.039 0 0 1 87.552-137.612 23.385 23.385 0 0 0 8.37 1.605 24.407 24.407 0 0 0 8.5-1.547l27.257-10.275a39.546 39.546 0 0 0 53.269 2.8l33.2 8.229a24.436 24.436 0 0 0 5.945.738 23.257 23.257 0 0 0 8.147-1.659 152.033 152.033 0 0 1 87.76 137.721v31.961zm-110.477 0c.011-20.962 8.4-43.84 21.373-58.277 5.645-6.242 14.719-13.684 25.906-13.684 26.135 0 47.181 39.355 47.2 71.961zm-160 0c.017-32.606 21.1-71.961 47.28-71.961 12.035 0 21.641 8.594 27.582 15.805 12.094 14.69 19.606 36.2 19.616 56.156zm110.478 0a109.779 109.779 0 0 0 -20.215-62.223c9.319-20.573 24.068-33.738 38.455-33.738 13.922 0 27.918 11.919 37.336 31.254-13.471 17.23-22.043 41.933-22.053 64.707zm209.52-31.961v31.961h-16v-31.961a168.067 168.067 0 0 0 -90.7-149.145 23.985 23.985 0 0 0 2.7-10.935v-5.563a183.177 183.177 0 0 1 104 165.643zm-130.8-203.949a7.993 7.993 0 0 1 10.8 7.469v36.4a7.983 7.983 0 0 1 -3.3 6.508c-.2.106-.4.219-.594.344a7.609 7.609 0 0 1 -6.1.906l-26.076-6.467a38.491 38.491 0 0 0 -.528-35.47zm-44.011 11.22c.031.033.054.071.086.1a23.976 23.976 0 1 1 -30.821-3.2c.031-.029.071-.036.1-.065.013-.013.017-.032.031-.045a23.9 23.9 0 0 1 30.6 3.2zm-86.146-10.009a8.081 8.081 0 0 1 6.93-1.5l28.2 7.091a38.979 38.979 0 0 0 -3.365 35.567l-23.988 9.041a8.028 8.028 0 0 1 -10.82-7.541v-36.4a7.9 7.9 0 0 1 3.043-6.258zm-19.043 37.095v5.563a24.046 24.046 0 0 0 2.694 10.939 168.07 168.07 0 0 0 -90.694 149.141v31.961h-16v-31.961a183.177 183.177 0 0 1 104-165.643zm248 309.6a32.033 32.033 0 0 1 -32-31.961h64a32.033 32.033 0 0 1 -32 31.965zm-344.749-11.962-5-20h61.749a31.86 31.86 0 0 1 -56.745 20zm136.749-19.995a32 32 0 0 1 -63.992 0zm80 0a32 32 0 0 1 -63.992 0zm80 0a32 32 0 0 1 -63.992 0zm49.758 112h-323.512l-16.954-67.836a47.946 47.946 0 0 0 58.708-17.726 47.931 47.931 0 0 0 80 0 47.931 47.931 0 0 0 80 0 47.931 47.931 0 0 0 80 0 47.946 47.946 0 0 0 58.7 17.731zm38.242-128.039h-400a23.993 23.993 0 0 1 -.129-47.986c.046 0 .083.025.129.025h400c.046 0 .083-.024.129-.025a23.993 23.993 0 0 1 -.129 47.986z"/><path d="m352 436.441h-240a8 8 0 0 0 0 16h240a8 8 0 0 0 0-16z"/><path d="m400 436.441h-16a8 8 0 0 0 0 16h16a8 8 0 0 0 0-16z"/><path d="m246.059 132.68-4.016 1a82.475 82.475 0 0 0 -48.7 34.32 8 8 0 0 0 13.312 8.875 66.478 66.478 0 0 1 39.27-27.672l4.015-1a8 8 0 1 0 -3.882-15.523z"/><path d="m286.488 133.816-4.547-1.136a8 8 0 1 0 -3.882 15.523l4.546 1.137a19.165 19.165 0 0 1 11.879 8.8 8 8 0 0 0 13.719-8.235 35.081 35.081 0 0 0 -21.715-16.089z"/></g></svg>