<svg height="512pt" viewBox="-23 0 511 512" width="512pt" xmlns="http://www.w3.org/2000/svg"><path d="m136.511719 240c0 102.238281 39.839843 194.960938 104.800781 263.761719-2.882812.160156-5.839844.238281-8.800781.238281-123.679688 0-224-100.320312-224-224v-40zm0 0" fill="#844747"/><path d="m456.511719 240v40c0 120.71875-95.601563 219.199219-215.199219 223.761719-64.960938-68.800781-104.800781-161.523438-104.800781-263.761719zm0 0" fill="#965353"/><path d="m376.511719 240h-288c0-79.519531 64.480469-232 144-232s144 152.480469 144 232zm0 0" fill="#ffce54"/><path d="m232.511719 8c-5.417969 0-10.746094.769531-16 2.105469 71.992187 18.367187 128 155.78125 128 229.894531h32c0-79.519531-64.480469-232-144-232zm0 0" fill="#f6bb42"/><path d="m232.519531 512c-127.921875 0-232-104.078125-232-232 0-4.425781 3.574219-8 8-8 4.421875 0 8 3.574219 8 8 0 119.105469 96.894531 216 216 216 119.101563 0 216-96.894531 216-216 0-4.425781 3.574219-8 8-8 4.421875 0 8 3.574219 8 8 0 127.921875-104.082031 232-232 232zm0 0"/><path d="m456.519531 248h-448c-4.425781 0-8-3.585938-8-8s3.574219-8 8-8h448c4.421875 0 8 3.585938 8 8s-3.578125 8-8 8zm0 0"/><path d="m8.519531 288c-4.425781 0-8-3.574219-8-8v-40c0-4.414062 3.574219-8 8-8 4.421875 0 8 3.585938 8 8v40c0 4.425781-3.578125 8-8 8zm0 0"/><path d="m456.519531 288c-4.425781 0-8-3.574219-8-8v-40c0-4.414062 3.574219-8 8-8 4.421875 0 8 3.585938 8 8v40c0 4.425781-3.578125 8-8 8zm0 0"/><path d="m376.519531 248c-4.425781 0-8-3.585938-8-8 0-75.695312-61.570312-224-136-224-74.433593 0-136 148.304688-136 224 0 4.414062-3.578125 8-8 8-4.425781 0-8-3.585938-8-8 0-80.046875 65.710938-240 152-240 86.289063 0 152 159.953125 152 240 0 4.414062-3.578125 8-8 8zm0 0"/><path d="m256.519531 120h-48c-4.425781 0-8-3.585938-8-8s3.574219-8 8-8h48c4.421875 0 8 3.585938 8 8s-3.578125 8-8 8zm0 0"/><path d="m256.527344 200c-2.71875 0-5.367188-1.382812-6.863282-3.878906l-48-80c-2.273437-3.792969-1.050781-8.707032 2.742188-10.976563 3.792969-2.273437 8.703125-1.039062 10.976562 2.742188l48 80c2.273438 3.792969 1.046876 8.707031-2.742187 10.976562-1.296875.769531-2.714844 1.136719-4.113281 1.136719zm0 0"/><path d="m256.519531 200h-48c-4.425781 0-8-3.585938-8-8s3.574219-8 8-8h48c4.421875 0 8 3.585938 8 8s-3.578125 8-8 8zm0 0"/><path d="m232.519531 120c-4.425781 0-8-3.585938-8-8v-16c0-4.414062 3.574219-8 8-8 4.421875 0 8 3.585938 8 8v16c0 4.414062-3.578125 8-8 8zm0 0"/><path d="m232.519531 216c-4.425781 0-8-3.585938-8-8v-16c0-4.414062 3.574219-8 8-8 4.421875 0 8 3.585938 8 8v16c0 4.414062-3.578125 8-8 8zm0 0"/><path d="m454.542969 317.742188c-1.976563 0-3.953125-.726563-5.503907-2.183594-20.976562-19.847656-32.519531-46.679688-32.519531-75.550782 0-4.414062 3.574219-8 8-8 4.421875 0 8 3.585938 8 8 0 24.433594 9.777344 47.136719 27.519531 63.929688 3.207032 3.039062 3.34375 8.101562.3125 11.308594-1.578124 1.65625-3.6875 2.496094-5.808593 2.496094zm0 0"/><path d="m446.960938 352.785156c-1.585938 0-3.195313-.472656-4.59375-1.457031-36.214844-25.480469-57.839844-67.089844-57.839844-111.328125 0-4.414062 3.574218-8 8-8 4.421875 0 8 3.585938 8 8 0 39.039062 19.085937 75.761719 51.046875 98.230469 3.617187 2.546875 4.488281 7.53125 1.945312 11.152343-1.570312 2.21875-4.046875 3.402344-6.558593 3.402344zm0 0"/><path d="m435.214844 383.425781c-1.464844 0-2.9375-.402343-4.253906-1.234375-49.121094-30.992187-78.441407-84.144531-78.441407-142.191406 0-4.414062 3.574219-8 8-8 4.421875 0 8 3.585938 8 8 0 52.519531 26.527344 100.617188 70.96875 128.65625 3.742188 2.359375 4.855469 7.296875 2.503907 11.03125-1.527344 2.417969-4.121094 3.738281-6.777344 3.738281zm0 0"/><path d="m419.511719 411.34375c-1.441407 0-2.890625-.382812-4.199219-1.191406-59.351562-36.769532-94.792969-100.367188-94.792969-170.152344 0-4.414062 3.574219-8 8-8 4.421875 0 8 3.585938 8 8 0 64.199219 32.597657 122.71875 87.207031 156.535156 3.761719 2.328125 4.914063 7.257813 2.59375 11.015625-1.511718 2.449219-4.128906 3.792969-6.808593 3.792969zm0 0"/><path d="m399.910156 436.832031c-1.480468 0-2.96875-.40625-4.304687-1.257812-67.054688-42.894531-107.085938-116.007813-107.085938-195.574219 0-4.414062 3.574219-8 8-8 4.421875 0 8 3.585938 8 8 0 74.089844 37.269531 142.160156 99.710938 182.089844 3.71875 2.382812 4.808593 7.324218 2.433593 11.054687-1.535156 2.375-4.113281 3.6875-6.753906 3.6875zm0 0"/><path d="m376.421875 459.679688c-1.550781 0-3.117187-.457032-4.503906-1.390626-72.253907-49.257812-115.398438-130.855468-115.398438-218.289062 0-4.414062 3.574219-8 8-8 4.421875 0 8 3.585938 8 8 0 82.136719 40.527344 158.800781 108.421875 205.070312 3.648438 2.488282 4.59375 7.464844 2.105469 11.121094-1.550781 2.273438-4.0625 3.488282-6.625 3.488282zm0 0"/><path d="m348.933594 479.390625c-1.65625 0-3.328125-.511719-4.757813-1.574219-74.929687-55.632812-119.65625-144.527344-119.65625-237.816406 0-4.414062 3.574219-8 8-8 4.421875 0 8 3.585938 8 8 0 89.558594 41.253907 171.558594 113.183594 224.96875 3.542969 2.632812 4.289063 7.640625 1.65625 11.183594-1.570313 2.121094-3.984375 3.238281-6.425781 3.238281zm0 0"/><path d="m317.398438 495.367188c-1.785157 0-3.582032-.589844-5.070313-1.824219-76.136719-62.566407-119.808594-154.984375-119.808594-253.542969 0-4.414062 3.574219-8 8-8 4.421875 0 8 3.585938 8 8 0 93.761719 41.535157 181.671875 113.96875 241.183594 3.414063 2.808594 3.902344 7.839844 1.101563 11.257812-1.574219 1.925782-3.878906 2.925782-6.191406 2.925782zm0 0"/><path d="m281.605469 506.59375c-1.941407 0-3.886719-.707031-5.429688-2.128906-73.496093-67.9375-115.65625-164.320313-115.65625-264.464844 0-4.414062 3.574219-8 8-8 4.421875 0 8 3.585938 8 8 0 95.6875 40.28125 187.808594 110.511719 252.71875 3.238281 3 3.449219 8.066406.449219 11.304688-1.578125 1.703124-3.730469 2.570312-5.875 2.570312zm0 0"/><path d="m241.40625 511.839844c-2.128906 0-4.238281-.832032-5.816406-2.503906-69.039063-73.015626-107.070313-168.671876-107.070313-269.335938 0-4.414062 3.574219-8 8-8 4.421875 0 8 3.585938 8 8 0 96.550781 36.480469 188.304688 102.703125 258.34375 3.039063 3.207031 2.886719 8.273438-.3125 11.3125-1.550781 1.464844-3.527344 2.183594-5.503906 2.183594zm0 0"/><path d="m138.03125 282.320312c-.640625 0-1.289062-.082031-1.9375-.230468-26.902344-6.691406-51.71875-18.699219-73.757812-35.714844-3.496094-2.695312-4.144532-7.71875-1.449219-11.222656 2.695312-3.488282 7.703125-4.152344 11.222656-1.441406 20.273437 15.65625 43.097656 26.703124 67.832031 32.847656 4.289063 1.074218 6.898438 5.410156 5.832032 9.699218-.886719 3.628907-4.152344 6.0625-7.742188 6.0625zm0 0"/><path d="m142.527344 316.0625c-.496094 0-.992188-.046875-1.503906-.140625-49.039063-9.289063-92.9375-33.675781-126.960938-70.507813-3-3.246093-2.800781-8.308593.449219-11.300781 3.230469-3 8.296875-2.816406 11.304687.445313 31.679688 34.296875 72.542969 56.992187 118.191406 65.640625 4.335938.824219 7.183594 5.007812 6.367188 9.351562-.71875 3.839844-4.078125 6.511719-7.847656 6.511719zm0 0"/><path d="m150.109375 349.6875c-.351563 0-.710937-.023438-1.070313-.070312-55.054687-7.386719-105.550781-31.546876-146.039062-69.875-3.210938-3.039063-3.34375-8.101563-.3125-11.308594 3.054688-3.21875 8.113281-3.335938 11.3125-.3125 38.03125 36.007812 85.464844 58.710937 137.167969 65.640625 4.382812.582031 7.453125 4.613281 6.863281 8.992187-.535156 4.015625-3.976562 6.933594-7.921875 6.933594zm0 0"/><path d="m160.894531 383.023438c-.214843 0-.441406-.007813-.65625-.023438-55.589843-4.503906-108.566406-24.566406-153.199219-58.046875-3.535156-2.648437-4.257812-7.664063-1.601562-11.191406 2.648438-3.539063 7.671875-4.242188 11.195312-1.601563 42.214844 31.65625 92.328126 50.632813 144.902344 54.886719 4.398438.359375 7.679688 4.21875 7.328125 8.625-.34375 4.175781-3.847656 7.351563-7.96875 7.351563zm0 0"/><path d="m175 415.832031c-.089844 0-.167969 0-.242188 0-53.773437-1.566406-106.742187-16.472656-153.191406-43.078125-3.832031-2.203125-5.167968-7.089844-2.96875-10.921875 2.203125-3.832031 7.097656-5.152343 10.921875-2.96875 44.167969 25.3125 94.558594 39.480469 145.710938 40.96875 4.417969.136719 7.886719 3.824219 7.769531 8.230469-.144531 4.34375-3.695312 7.769531-8 7.769531zm0 0"/><path d="m184.511719 447.976562c-46.226563 0-91.234375-8.625-133.777344-25.640624-4.101563-1.640626-6.101563-6.296876-4.464844-10.398438 1.640625-4.113281 6.320313-6.105469 10.402344-4.464844 43.046875 17.214844 89.152344 25.511719 135.664063 24.40625 4.503906-.023437 8.078124 3.402344 8.183593 7.816406.101563 4.417969-3.402343 8.082032-7.816406 8.183594-2.710937.066406-5.449219.097656-8.191406.097656zm0 0"/><path d="m184.511719 479.976562c-27.640625 0-55.234375-2.886718-82.015625-8.578124-4.320313-.917969-7.082032-5.167969-6.167969-9.496094.925781-4.328125 5.167969-7.085938 9.496094-6.167969 34.847656 7.425781 71.328125 9.839844 107.144531 7.167969 4.582031-.292969 8.246094 2.976562 8.574219 7.378906.328125 4.40625-2.976563 8.246094-7.375 8.574219-9.824219.746093-19.800781 1.121093-29.65625 1.121093zm0 0"/></svg>